<svg width="1280" height="720" xmlns="http://www.w3.org/2000/svg" xmlns:xlink="http://www.w3.org/1999/xlink" overflow="hidden"><defs><clipPath id="clip0"><path d="M0 0 1280 0 1280 720 0 720Z" fill-rule="evenodd" clip-rule="evenodd"/></clipPath></defs><g clip-path="url(#clip0)"><rect x="0" y="0" width="1280" height="720" fill="#FFFFFF"/><text font-family="DengXian,DengXian_MSFontService,sans-serif" font-weight="300" font-size="59" transform="translate(97.6 124)">Others:<tspan font-family="Arial,Arial_MSFontService,sans-serif" font-weight="400" font-size="37" x="0" y="102">•</tspan><tspan font-weight="400" font-size="37" x="24" y="102">二分</tspan><tspan font-weight="400" font-size="37" x="98.6667" y="102">+2</tspan><tspan font-weight="400" font-size="37" x="143.167" y="102">-</tspan><tspan font-weight="400" font-size="37" x="161.833" y="102">SAT</tspan><tspan font-weight="400" font-size="37" x="224.167" y="102">、二分加网络流、线段树</tspan><tspan font-weight="400" font-size="37" x="634.833" y="102">+</tspan><tspan font-weight="400" font-size="37" x="659.667" y="102">二分</tspan><tspan font-family="Arial,Arial_MSFontService,sans-serif" font-weight="400" font-size="37" x="0" y="156">•</tspan><tspan font-weight="400" font-size="37" x="24" y="156">倍增优化动态规划</tspan><tspan font-family="Arial,Arial_MSFontService,sans-serif" font-weight="400" font-size="37" x="0" y="210">•</tspan><tspan font-weight="400" font-size="37" x="24" y="210">倍增</tspan><tspan font-weight="400" font-size="37" x="98.6667" y="210">floyd</tspan><tspan font-weight="400" font-size="37" x="178.333" y="210">、倍增</tspan><tspan font-weight="400" font-size="37" x="290.333" y="210">FFT</tspan><tspan font-weight="400" font-size="37" x="345.333" y="210">等与其他算法的结合</tspan><tspan font-family="Arial,Arial_MSFontService,sans-serif" font-weight="400" font-size="37" x="0" y="263">•</tspan><tspan font-weight="400" font-size="37" x="24" y="263">后缀数组等算法也运用了倍增思想</tspan><tspan font-family="Arial,Arial_MSFontService,sans-serif" font-weight="400" font-size="37" x="0" y="317">•</tspan><tspan fill="#0563C1" font-weight="400" font-size="37" x="24" y="317">Chan</tspan><tspan fill="#0563C1" font-weight="400" font-size="37" x="106.833" y="317">凸包算法</tspan></text><path d="M121.6 448.467 353.6 448.467 353.6 450.467 121.6 450.467Z" fill="#0563C1" fill-rule="evenodd"/></g></svg>